<?xml version="1.0" standalone="no"?>
<!DOCTYPE svg PUBLIC "-//W3C//DTD SVG 20010904//EN"
 "http://www.w3.org/TR/2001/REC-SVG-20010904/DTD/svg10.dtd">
<svg version="1.0" xmlns="http://www.w3.org/2000/svg"
 width="812.000000pt" height="812.000000pt" viewBox="0 0 812.000000 812.000000"
 preserveAspectRatio="xMidYMid meet">
<metadata>
Created by potrace 1.14, written by Peter Selinger 2001-2017
</metadata>
<g transform="translate(0.000000,812.000000) scale(0.100000,-0.100000)"
fill="#000000" stroke="none">
<path d="M0 4060 l0 -4060 4060 0 4060 0 0 4060 0 4060 -4060 0 -4060 0 0
-4060z m6205 3021 c22 -11 56 -34 76 -53 48 -44 118 -134 125 -162 2 -11 -51
-329 -120 -706 -252 -1380 -424 -2326 -428 -2350 -3 -23 1 -25 41 -28 42 -3
43 -4 38 -35 -3 -18 -34 -147 -70 -287 -120 -473 -120 -468 -127 -1040 -4
-272 -8 -496 -8 -497 -1 -1 -9 -9 -19 -18 -15 -16 -15 -20 5 -61 24 -49 29
-133 12 -194 -21 -74 -138 -179 -377 -339 -94 -63 -129 -81 -157 -81 -81 0
-148 54 -173 140 -28 96 -13 240 112 1118 57 399 181 1234 250 1682 13 85 21
157 19 160 -3 3 -11 -2 -17 -11 -7 -8 -24 -31 -39 -50 l-28 -34 -97 34 -98 33
-335 -5 c-207 -3 -379 -11 -450 -20 -285 -38 -536 -87 -829 -163 l-173 -45
-52 17 c-82 27 -175 71 -227 109 -48 34 -49 34 -53 12 -3 -12 -21 -103 -41
-202 -111 -552 -233 -1116 -399 -1840 l-43 -190 18 -37 c26 -51 49 -152 49
-213 l-1 -50 -294 -142 c-162 -79 -305 -143 -318 -143 -42 0 -123 29 -144 52
-36 41 -45 69 -50 168 -6 97 -5 99 27 151 136 222 298 779 439 1514 134 699
281 1677 391 2595 16 140 35 281 40 312 32 173 166 325 388 437 34 17 66 31
71 31 5 0 12 -14 16 -31 11 -48 61 -98 113 -111 l45 -11 -6 -186 c-13 -352
-85 -909 -205 -1586 -21 -115 -35 -211 -31 -213 4 -2 29 8 56 21 208 106 714
193 1398 242 116 8 249 17 296 21 80 5 100 2 270 -39 259 -64 357 -83 367 -72
5 6 30 147 55 315 26 168 76 494 112 725 92 593 132 865 143 980 21 211 95
335 227 383 50 18 165 14 210 -7z"/>
</g>
</svg>
